<?xml version="1.0" encoding="UTF-8"?>
<!DOCTYPE svg PUBLIC "-//W3C//DTD SVG 1.1//EN" "http://www.w3.org/Graphics/SVG/1.1/DTD/svg11.dtd">
<!-- Creator: CorelDRAW 2021 (64-Bit) -->
<svg xmlns="http://www.w3.org/2000/svg" xml:space="preserve" width="1.70666in" height="0.299992in" version="1.1" style="shape-rendering:geometricPrecision; text-rendering:geometricPrecision; image-rendering:optimizeQuality; fill-rule:evenodd; clip-rule:evenodd"
viewBox="0 0 1706.66 299.99"
 xmlns:xlink="http://www.w3.org/1999/xlink"
 xmlns:xodm="http://www.corel.com/coreldraw/odm/2003">
 <defs>
  <style type="text/css">
   <![CDATA[
    .fil2 {fill:#032B61}
    .fil5 {fill:#043576}
    .fil3 {fill:#053575}
    .fil4 {fill:#E20206}
    .fil1 {fill:#043576;fill-rule:nonzero}
    .fil0 {fill:#E40005;fill-rule:nonzero}
   ]]>
  </style>
 </defs>
 <g id="Layer_x0020_1">
  <metadata id="CorelCorpID_0Corel-Layer"/>
  <path class="fil0" d="M546.79 120.83c15.4,0 27.1,2.85 35.11,8.54 8.01,5.69 12.02,14.3 12.02,25.81 0,6.38 -1,12.14 -3,17.27 -2,5.13 -5.19,9.45 -9.57,12.96 -4.38,3.5 -9.98,6.2 -16.8,8.07 -6.82,1.88 -14.99,2.81 -24.5,2.81l-116.97 0 24.97 -32.3 95 0c4.63,0 8.01,-0.72 10.14,-2.16 2.13,-1.44 3.19,-3.79 3.19,-7.04 0,-3.26 -1.06,-5.57 -3.19,-6.95 -2.13,-1.38 -5.51,-2.07 -10.14,-2.07l-68.34 0c-8.13,0 -15.15,-0.87 -21.03,-2.63 -5.88,-1.75 -10.76,-4.19 -14.65,-7.32 -3.88,-3.13 -6.76,-6.92 -8.64,-11.36 -1.87,-4.44 -2.81,-9.36 -2.81,-14.74 0,-5.88 1.03,-11.24 3.1,-16.06 2.07,-4.82 5.26,-8.92 9.57,-12.3 4.32,-3.38 9.89,-6.01 16.71,-7.89 6.82,-1.88 14.99,-2.82 24.5,-2.82l109.09 0 -24.97 32.67 -87.12 0c-4.5,0 -7.85,0.63 -10.04,1.88 -2.19,1.25 -3.29,3.51 -3.29,6.76 0,3.26 1.09,5.54 3.29,6.85 2.19,1.31 5.54,1.97 10.04,1.97l68.34 0z"/>
  <polygon id="_1" class="fil0" points="763.65,196.31 724.97,196.31 724.97,147.87 650.24,147.87 650.24,196.31 611.19,196.31 611.19,70.7 650.24,70.7 650.24,115.2 724.97,115.2 724.97,70.7 763.65,70.7 "/>
  <polygon id="_2" class="fil0" points="933.38,164.01 908.41,196.31 787.49,196.31 787.49,70.7 933,70.7 907.84,103.37 826.54,103.37 826.54,118.39 926.06,118.39 903.71,146.93 826.54,146.93 826.54,164.01 "/>
  <path id="_3" class="fil0" d="M1034.57 68.63c30.54,0 53.48,5.19 68.81,15.58 15.33,10.39 23,26.79 23,49.19 0,22.53 -7.64,38.99 -22.91,49.38 -15.27,10.39 -38.24,15.59 -68.91,15.59 -30.79,0 -53.79,-5.2 -69,-15.59 -15.21,-10.39 -22.81,-26.85 -22.81,-49.38 0,-22.41 7.63,-38.8 22.91,-49.19 15.27,-10.39 38.24,-15.58 68.91,-15.58zm0 97.07c9.76,0 18.03,-0.41 24.78,-1.22 6.76,-0.81 12.24,-2.41 16.43,-4.79 4.19,-2.38 7.23,-5.66 9.11,-9.85 1.88,-4.19 2.82,-9.67 2.82,-16.43 0,-6.76 -0.94,-12.24 -2.82,-16.43 -1.88,-4.19 -4.91,-7.45 -9.11,-9.76 -4.19,-2.31 -9.67,-3.88 -16.43,-4.69 -6.76,-0.81 -15.02,-1.22 -24.78,-1.22 -9.76,0 -18.02,0.41 -24.78,1.22 -6.76,0.81 -12.23,2.38 -16.43,4.69 -4.19,2.31 -7.23,5.57 -9.11,9.76 -1.87,4.19 -2.81,9.67 -2.81,16.43 0,6.76 0.94,12.24 2.81,16.43 1.88,4.19 4.91,7.48 9.11,9.85 4.2,2.38 9.67,3.98 16.43,4.79 6.76,0.81 15.02,1.22 24.78,1.22z"/>
  <path id="_4" class="fil0" d="M1324.28 196.31l-52.01 0 -27.98 -33.23 -59.7 0 0 33.23 -38.87 0 0 -64.21 109.28 0c6.01,0 11.07,-1.25 15.21,-3.76 4.13,-2.5 6.19,-5.94 6.19,-10.33 0,-4.88 -1.88,-8.54 -5.63,-10.98 -3.76,-2.44 -9.01,-3.66 -15.77,-3.66l-109.28 0 25.35 -32.67 80.74 0c7.13,0 14.52,0.66 22.15,1.97 7.64,1.31 14.58,3.66 20.84,7.04 6.26,3.38 11.42,7.94 15.49,13.7 4.07,5.76 6.1,13.14 6.1,22.15 0,4.88 -0.75,9.52 -2.25,13.89 -1.5,4.38 -3.66,8.33 -6.48,11.83 -2.82,3.5 -6.26,6.48 -10.33,8.92 -4.07,2.44 -8.67,4.16 -13.8,5.17 2.13,1.63 4.5,3.69 7.13,6.19 2.63,2.5 6.13,5.95 10.51,10.33l23.09 24.41z"/>
  <path id="_5" class="fil0" d="M1391.31 196.31l23.47 -32.3 31.54 0c3.76,0 7.67,0 11.74,0 4.07,0 7.6,0.13 10.61,0.38 -1.75,-2.26 -3.79,-5.1 -6.1,-8.54 -2.31,-3.44 -4.54,-6.67 -6.67,-9.67l-22.53 -33.23 -58.95 83.36 -46 0 80.55 -113.59c2.63,-3.63 5.94,-6.89 9.95,-9.76 4.01,-2.88 9.07,-4.32 15.21,-4.32 5.88,0 10.8,1.35 14.74,4.04 3.94,2.69 7.29,6.04 10.04,10.05l78.48 113.59 -146.07 0z"/>
  <path id="_6" class="fil0" d="M1678.58 198.37c-2.5,0 -4.97,-0.41 -7.41,-1.22 -2.44,-0.81 -5.17,-2.66 -8.17,-5.54l-76.98 -69.09 0 73.79 -35.3 0 0 -104.2c0,-4.13 0.59,-7.7 1.78,-10.7 1.19,-3 2.76,-5.44 4.7,-7.32 1.94,-1.88 4.19,-3.26 6.76,-4.13 2.56,-0.88 5.22,-1.31 7.98,-1.31 2.38,0 4.79,0.41 7.23,1.22 2.44,0.81 5.23,2.66 8.36,5.54l76.98 69.09 0 -73.79 35.48 0 0 104.02c0,4.13 -0.59,7.7 -1.78,10.7 -1.19,3 -2.76,5.48 -4.69,7.42 -1.94,1.94 -4.22,3.35 -6.85,4.22 -2.63,0.87 -5.32,1.31 -8.07,1.31z"/>
  <polygon class="fil1" points="437.87,283.83 437.87,226.95 427.25,226.95 427.25,283.83 "/>
  <path id="_1_0" class="fil1" d="M484.1 238.16c0,5.09 0.23,10.54 0.53,15.99 0.3,5.45 0.68,10.98 1.06,16.13l-0.15 0c-2.58,-9.24 -4.85,-15.98 -7.59,-22.56l-8.27 -20.77 -11 0 0 56.89 10.62 0 0 -10.68c0,-4.54 -0.23,-10.22 -0.53,-15.89 -0.3,-5.75 -0.76,-11.5 -1.14,-16.2l0.15 0c2.5,8.94 4.78,15.83 7.58,22.56l8.27 20.21 11.07 0 0 -56.89 -10.62 0 0 11.21z"/>
  <polygon id="_2_1" class="fil1" points="511.59,235.29 524.03,235.29 524.03,283.83 534.65,283.83 534.65,235.29 547.01,235.29 547.01,226.95 511.59,226.95 "/>
  <polygon id="_3_2" class="fil1" points="593.39,283.83 593.39,275.49 574.13,275.49 574.13,257.97 591.88,257.97 591.88,249.63 574.13,249.63 574.13,235.29 593.39,235.29 593.39,226.95 563.51,226.95 563.51,283.83 "/>
  <path id="_4_3" class="fil1" d="M624.53 259.33c3.04,0 6.15,-0.07 9.03,0.76 3.64,1.06 3.56,5.84 3.64,9.33 0.08,3.79 -0.15,10.77 1.14,14.41l11.68 0 0 -1.06c-2.58,-1.67 -2.28,-15.62 -2.28,-17.98 0,-5.46 -1.89,-9.48 -8.19,-10.31l0 -0.15c7.13,-0.99 8.72,-7.51 8.72,-13.73 0,-10.47 -6.98,-13.65 -16.15,-13.65l-20.1 0 0 56.89 10.62 0 0 -24.5 1.89 0zm-1.89 -24.04l7.89 0c4.02,0.08 6.67,1.14 6.67,7.51 0,5.69 -2.73,7.96 -6.22,8.19l-8.34 0 0 -15.7z"/>
  <path id="_5_4" class="fil1" d="M694.35 238.16c0,5.09 0.23,10.54 0.53,15.99 0.3,5.45 0.68,10.98 1.06,16.13l-0.15 0c-2.58,-9.24 -4.85,-15.98 -7.59,-22.56l-8.27 -20.77 -11 0 0 56.89 10.62 0 0 -10.68c0,-4.54 -0.23,-10.22 -0.53,-15.89 -0.3,-5.75 -0.76,-11.5 -1.14,-16.2l0.15 0c2.5,8.94 4.78,15.83 7.58,22.56l8.27 20.21 11.07 0 0 -56.89 -10.62 0 0 11.21z"/>
  <path id="_6_5" class="fil1" d="M732.61 283.83l2.81 -14.41 12.44 0 2.81 14.41 11.38 0 -12.89 -56.89 -14.33 0 -13.58 56.89 11.38 0zm7.66 -38.91c0.53,-2.65 0.76,-5.23 1.06,-7.89 0.07,-1.29 0.22,-2.58 0.38,-3.79l0.15 0c0.15,1.21 0.31,2.5 0.38,3.79 0.3,2.66 0.53,5.24 1.06,7.89l2.88 16.15 -9.1 0 3.19 -16.15z"/>
  <polygon id="_7" class="fil1" points="770.28,235.29 782.71,235.29 782.71,283.83 793.33,283.83 793.33,235.29 805.69,235.29 805.69,226.95 770.28,226.95 "/>
  <polygon id="_8" class="fil1" points="833.19,283.83 833.19,226.95 822.57,226.95 822.57,283.83 "/>
  <path id="_9" class="fil1" d="M853.48 258.96c0,15.17 1.14,26.24 18.58,26.24 17.44,0 18.58,-11.07 18.58,-26.24l0 -8.11c-0.46,-14.49 -1.59,-25.26 -18.58,-25.26 -16.99,0 -18.13,10.77 -18.58,25.26l0 8.11zm10.92 -10.46c0,-4.4 -0.68,-14.34 7.66,-14.34 7.89,0 7.66,10.09 7.66,14.64l0 14.56c0,5.46 -0.07,13.28 -7.66,13.28 -7.28,0 -7.66,-7.66 -7.66,-12.36l0 -15.78z"/>
  <path id="_10" class="fil1" d="M936.19 238.16c0,5.09 0.23,10.54 0.53,15.99 0.3,5.45 0.68,10.98 1.06,16.13l-0.15 0c-2.58,-9.24 -4.85,-15.98 -7.59,-22.56l-8.27 -20.77 -11 0 0 56.89 10.62 0 0 -10.68c0,-4.54 -0.23,-10.22 -0.53,-15.89 -0.3,-5.75 -0.76,-11.5 -1.14,-16.2l0.15 0c2.5,8.94 4.78,15.83 7.58,22.56l8.27 20.21 11.07 0 0 -56.89 -10.62 0 0 11.21z"/>
  <path id="_11" class="fil1" d="M974.46 283.83l2.81 -14.41 12.44 0 2.81 14.41 11.38 0 -12.89 -56.89 -14.33 0 -13.58 56.89 11.38 0zm7.66 -38.91c0.53,-2.65 0.76,-5.23 1.06,-7.89 0.07,-1.29 0.22,-2.58 0.38,-3.79l0.15 0c0.15,1.21 0.31,2.5 0.38,3.79 0.3,2.66 0.53,5.24 1.06,7.89l2.88 16.15 -9.1 0 3.19 -16.15z"/>
  <polygon id="_12" class="fil1" points="1050.49,283.83 1050.49,275.49 1030.77,275.49 1030.77,226.95 1020.15,226.95 1020.15,283.83 "/>
  <path id="_13" class="fil1" d="M1110.46 263.58c-0.23,3.64 0.45,13.05 -5.4,13.05 -7.28,0 -7.66,-7.66 -7.66,-12.36l0 -15.78c0,-4.4 -0.69,-14.34 7.66,-14.34 5.23,0 4.85,6.83 5.31,10.47l10.47 0c0.07,-1.44 -0.08,-2.88 -0.23,-4.32 -0.76,-9.71 -6.07,-14.56 -15.55,-14.72 -16.99,0 -18.13,10.77 -18.58,25.26l0 8.11c0,15.17 1.14,26.24 18.58,26.24 11.85,0 15.34,-7.96 15.87,-18.35 0.08,-1.06 0.15,-2.2 0.23,-3.26l-10.7 0z"/>
  <path id="_14" class="fil1" d="M1146.97 283.83l2.81 -14.41 12.44 0 2.81 14.41 11.38 0 -12.89 -56.89 -14.33 0 -13.58 56.89 11.38 0zm7.66 -38.91c0.53,-2.65 0.76,-5.23 1.06,-7.89 0.07,-1.29 0.22,-2.58 0.38,-3.79l0.15 0c0.15,1.21 0.31,2.5 0.38,3.79 0.3,2.66 0.53,5.24 1.06,7.89l2.88 16.15 -9.1 0 3.19 -16.15z"/>
  <path id="_15" class="fil1" d="M1205.03 259.33c3.04,0 6.15,-0.07 9.03,0.76 3.64,1.06 3.56,5.84 3.64,9.33 0.08,3.79 -0.15,10.77 1.14,14.41l11.68 0 0 -1.06c-2.58,-1.67 -2.28,-15.62 -2.28,-17.98 0,-5.46 -1.89,-9.48 -8.19,-10.31l0 -0.15c7.13,-0.99 8.72,-7.51 8.72,-13.73 0,-10.47 -6.98,-13.65 -16.15,-13.65l-20.1 0 0 56.89 10.62 0 0 -24.5 1.89 0zm-1.89 -24.04l7.89 0c4.02,0.08 6.67,1.14 6.67,7.51 0,5.69 -2.73,7.96 -6.22,8.19l-8.34 0 0 -15.7z"/>
  <path id="_16" class="fil1" d="M1248.45 258.96c0,15.17 1.14,26.24 18.58,26.24 3.87,-0.3 7.89,-1.97 10.01,-7.89l0.15 0 0 6.52 7.96 0 0 -30.57 -17.67 0 0 8.34 7.36 0c0.23,8.57 -1.74,15.02 -7.81,15.02 -7.28,0 -7.66,-7.66 -7.66,-12.36l0 -15.78c0,-4.4 -0.69,-14.34 7.66,-14.34 7.2,0.3 7.58,4.85 7.74,10.62l10.62 0c-0.08,-2.28 0,-4.63 -0.53,-6.91 -2.43,-9.86 -8.72,-12.21 -17.82,-12.29 -16.99,0 -18.13,10.77 -18.58,25.26l0 8.11z"/>
  <path id="_17" class="fil1" d="M1305.68 258.96c0,15.17 1.14,26.24 18.58,26.24 17.44,0 18.58,-11.07 18.58,-26.24l0 -8.11c-0.46,-14.49 -1.59,-25.26 -18.58,-25.26 -16.99,0 -18.13,10.77 -18.58,25.26l0 8.11zm10.92 -10.46c0,-4.4 -0.68,-14.34 7.66,-14.34 7.89,0 7.66,10.09 7.66,14.64l0 14.56c0,5.46 -0.07,13.28 -7.66,13.28 -7.28,0 -7.66,-7.66 -7.66,-12.36l0 -15.78z"/>
  <path id="_18" class="fil1" d="M1392.48 265.93c0,-11.3 -0.23,-22.6 -0.91,-33.9l0.38 0 11.15 51.8 6.44 0 11.38 -51.8 0.15 0c-0.69,11.3 -0.91,22.6 -0.91,33.9l0 17.9 10.62 0 0 -56.89 -16.84 0 -5.69 26.39c-0.76,3.72 -1.14,7.51 -1.67,13.12l-0.15 0c-0.46,-4.4 -1.06,-8.8 -1.97,-13.12l-5.69 -26.39 -16.91 0 0 56.89 10.62 0 0 -17.9z"/>
  <path id="_19" class="fil1" d="M1450.85 258.96c0,15.17 1.14,26.24 18.58,26.24 17.44,0 18.58,-11.07 18.58,-26.24l0 -8.11c-0.46,-14.49 -1.59,-25.26 -18.58,-25.26 -16.99,0 -18.13,10.77 -18.58,25.26l0 8.11zm10.92 -10.46c0,-4.4 -0.68,-14.34 7.66,-14.34 7.89,0 7.66,10.09 7.66,14.64l0 14.56c0,5.46 -0.07,13.28 -7.66,13.28 -7.28,0 -7.66,-7.66 -7.66,-12.36l0 -15.78z"/>
  <path id="_20" class="fil1" d="M1526.28 263.43c-0.61,3.19 -0.98,6.44 -1.29,9.71 -0.15,1.52 -0.46,3.11 -0.46,4.7l-0.15 0c0,-1.59 -0.3,-3.19 -0.46,-4.7 -0.3,-3.26 -0.68,-6.52 -1.29,-9.71l-6.68 -36.48 -11.37 0 12.59 56.89 14.18 0 12.29 -56.89 -11.38 0 -5.99 36.48z"/>
  <polygon id="_21" class="fil1" points="1590.33,283.83 1590.33,275.49 1571.06,275.49 1571.06,257.97 1588.81,257.97 1588.81,249.63 1571.06,249.63 1571.06,235.29 1590.33,235.29 1590.33,226.95 1560.44,226.95 1560.44,283.83 "/>
  <path id="_22" class="fil1" d="M1621.46 259.33c3.04,0 6.15,-0.07 9.03,0.76 3.64,1.06 3.56,5.84 3.64,9.33 0.08,3.79 -0.15,10.77 1.14,14.41l11.68 0 0 -1.06c-2.58,-1.67 -2.28,-15.62 -2.28,-17.98 0,-5.46 -1.89,-9.48 -8.19,-10.31l0 -0.15c7.13,-0.99 8.72,-7.51 8.72,-13.73 0,-10.47 -6.98,-13.65 -16.15,-13.65l-20.1 0 0 56.89 10.62 0 0 -24.5 1.89 0zm-1.89 -24.04l7.89 0c4.02,0.08 6.67,1.14 6.67,7.51 0,5.69 -2.73,7.96 -6.22,8.19l-8.34 0 0 -15.7z"/>
  <path id="_23" class="fil1" d="M1697.81 244.24c-0.08,-5.61 0.38,-18.66 -16.54,-18.66 -11.22,0 -16.69,5.31 -16.69,15.02 0,3.04 0.98,6.14 2.73,8.72 4.32,5.69 11.22,8.8 16.76,13.12 2.73,1.9 4.24,4.17 4.24,7.51 0,4.32 -2.12,6.67 -6.6,6.67 -5.23,0 -6.9,-4.02 -6.67,-9.56l0 -3.33 -10.62 0 0 4.17c0,10.17 4.55,17.3 17.29,17.3 10.39,0 17.52,-5.61 17.52,-16.38 0,-4.93 -1.14,-8.35 -4.78,-11.91 -2.96,-2.88 -9.41,-7.13 -12.89,-9.33 -3.34,-2.12 -6.07,-3.79 -6.07,-8.11 0,-3.87 2.28,-5.31 5.84,-5.31 5.84,0 6.3,5.01 6.22,10.09l10.24 0z"/>
  <path class="fil2" d="M324.39 24.07c2.36,1.25 11.68,4.34 15.5,5.82 1.66,0.64 3.76,1.22 5.28,1.94 -0.46,0.4 -7.58,2.99 -8.8,3.43 -16.82,5.99 -10.7,6.49 -21.49,-0.17 -1.28,-0.79 -4.04,-0.14 -5.76,-0.06 0.59,1.8 4.31,7.05 5.24,9.22l-10.96 -0.07c2.02,1.4 12.12,5.18 14.6,5.49 5.06,0.63 12.31,-1.88 16.66,-3.43l22.3 -7.98c2.43,-0.85 2.83,-4.04 4.46,-5.63 -0.25,1.17 -1.14,3.18 -1.62,4.44l-5.07 13.93c1.1,-0.5 1.91,-1.58 2.77,-2.43l15.82 -15.64c1.79,-1.75 20.68,-10.8 24.06,-12.39 1.28,-0.61 2.33,-0.94 3.59,-1.64 0.55,-0.31 1.17,-0.7 1.6,-1.04 0.6,-0.48 0.8,-0.67 0.78,-1.71 -1.41,-1.11 -3.23,-0.46 -5.01,-0.95 -1.07,-0.3 -3.02,-1.39 -4.07,-1.87 -4.44,-2.03 -4.32,-1.83 -9.21,-0.41 -5.58,1.63 -11.95,4.46 -17.12,6.72 -1.87,0.81 -6.82,3.38 -8.33,3.46 -3.81,0.2 -7.85,0.23 -11.67,0.29 -7.85,0.13 -15.7,0.49 -23.54,0.67z"/>
  <path class="fil3" d="M131.57 206.51c-6.52,3.7 -27.36,13.61 -34.15,16.89l-40.42 20.19c-3.51,1.77 -10.98,4.95 -13.72,7.03 -0.74,8.98 0.89,8.56 5.07,14.73 4.23,6.25 1.28,5.12 14.76,5.4 18,0.37 17.43,-3.17 30.86,-9.29 17.79,-8.11 29.11,-9.58 48.57,-2.15 4.94,1.88 9.4,5.01 13.48,6.59 -1.77,0.7 -10.2,-0.44 -17.82,0.94 -4.27,0.78 -11.89,2.53 -14.45,5.04 27.89,2.67 55.38,2.24 76.23,-14.31 13.41,-10.65 27.07,-11.57 44.9,-9.8 -0.37,0.1 -20.88,19.48 -9.1,24.75 5.87,2.62 15.86,1.72 22.7,1.9 16.43,0.42 33.01,0.4 49.44,1.01 -0.43,-8.63 -3.63,-11.96 -7.97,-17.42 -2.02,-2.54 -8.09,-7.04 -10.93,-13.89 -1.33,-3.21 -3.24,-10.3 -1.76,-13.98 1.89,5 4.39,12.56 10.03,14.52l7.25 -5.51c2.35,-1.83 4.85,-3.81 7.31,-5.78 0.72,-0.57 0.87,-0.78 1.68,-1.37 0.89,-0.65 0.84,-0.59 1.72,-1.35l36.62 -34.5c3.19,-3.36 8.51,-9.72 9.67,-16.06 1.55,-8.43 -2.54,-13 -8.56,-16.63 -33.06,-19.95 -99.31,-15.52 -135.52,-9.32 -8.81,1.51 -46.94,8.54 -53.95,13.24 -1.2,0.8 -0.87,0.72 -1.83,1.68 -1.61,1.61 -1.81,1.3 -3.22,3.35 -3.22,4.68 -7.76,10.4 -10.33,15.29 7.48,-2.26 15,-5.13 22.94,-7.43 6.82,-1.98 4.86,-1.44 7.53,-7.85 2.72,-6.53 0.91,-5.81 8.07,-7.4l-4.96 12.25 26.94 -5.48c1.5,-2.54 4.35,-9.41 5.19,-12.44l5.48 -0.78c-0.87,2.78 -4.71,10.7 -4.69,12.43 8.26,-1.05 17.91,-2.99 26.15,-3.1 0.26,-1.48 4.32,-11.44 5.06,-12.56l5 -0.51 -4.88 12.38 25.77 -1.66c0.63,-3.45 3.52,-8.02 4.54,-11.83l5.11 0.05 -4.65 11.6c1.62,-0.03 32.55,-1.32 33.66,0.25 0.53,1.62 -2.81,5.11 -3.78,5.72 -1.53,0.95 -7.68,0.66 -10.17,0.72 -33.71,0.87 -65.57,3.26 -98.7,10.35 -10.38,2.22 -61.63,21.54 -66.15,24.11z"/>
  <path class="fil3" d="M38.47 236.44l5.41 -2.35c-0.59,-2.23 -2.19,-5.3 -3.1,-7.76 -8.78,-23.67 -11.62,-41.58 -10.16,-67.92 1.31,-23.6 11.24,-51.72 22.12,-68.14l7.95 6.59c4.72,3.8 12.81,8.73 17.93,11.75 2.85,1.67 6.67,3.13 9.56,5.01l-4.65 26.62c-1.13,9.28 -2.12,20.78 -1.81,30.17l5.83 -0.06c0.78,-20.24 1.91,-34.86 6.11,-54.2 2.65,0.89 5.13,2.07 7.89,3.11 9.33,3.5 15.38,5.34 25.3,7.86 11.07,2.81 26.43,5.54 38.3,5.98 1.54,-1.41 4.83,-4.31 5.62,-5.47 -14.15,-1.05 -27.23,-2.45 -40.54,-5.65 -9.39,-2.25 -17.63,-4.73 -26.46,-8.09 -2.91,-1.1 -5.72,-2.54 -8.49,-3.35 1.99,-13.85 15.72,-42.21 23.49,-53.37 6.42,-9.2 4.93,-7.74 10.34,-6.45 10.65,2.51 22.23,4.23 33.24,5.23 4.87,0.44 13.84,0.22 17.9,0.95 0.07,0.1 0.13,0.15 0.14,0.3l0.23 0.67c0.02,0.11 0.06,0.24 0.07,0.37l0.01 59.9c1.48,-0.76 3.53,-0.71 5.73,-0.72l0.22 -60.57c10.22,-0.57 19.43,-0.73 29.39,-2.1 4.15,-0.57 25.95,-5 27.17,-4.85l4.65 6.27c4.85,7.31 8.33,12.82 12.28,21.29 3.4,7.3 10.85,24.64 11.88,33l-17.85 6.93 15.59 0.03c1.84,-0.15 2.1,-0.68 3.87,-1.2 0.84,4.33 1.93,8.63 2.68,13.16 0.53,3.24 1.31,11.53 2.22,14.09l5.33 -0.48c0.76,-5.97 -3.85,-22.83 -4.82,-29.4 10.18,-4.26 18.9,-10.36 27.35,-16.56l7.88 -6.78c3.13,2.44 11.63,21.83 13.54,27.29 1.82,5.2 3.47,10.2 4.84,15.68 1.43,5.73 1.97,12 3.44,17.55 1.64,0.21 4.21,-0.06 5.56,-0.91 -2.7,-24.51 -12.16,-46.29 -22.94,-64.15 -2.55,-4.22 -5.81,-8.98 -8.76,-12.63l-4.89 -6.01c-1.26,-1.58 -0.94,-1.17 -2.52,-2.72 -1.35,-1.33 -2.45,-3.53 -5.15,-5.76 -1.05,-0.87 -0.55,-0.3 -1.37,-1.26 -2.8,-3.26 -9.34,-8.6 -13.15,-11.72 -35.78,-29.24 -91.58,-43.87 -144.11,-28.2 -10.88,3.25 -21.65,7.43 -30.61,12.56 -4.96,2.83 -9.2,5.22 -13.62,8.21l-10.76 8.01c-6.43,5.19 -7.07,5.98 -12.74,11.7 -4.69,4.72 -6.41,6.24 -10.55,11.27 -30.29,36.74 -42.85,86.3 -32.7,134.28 1.53,7.23 4.72,18.2 7.58,25.19 0.93,2.26 2.61,5.79 3.1,7.84zm206.37 -193.54c3.22,-0.46 13.84,-3.93 16.07,-5.2 -6.57,-5.13 -32.53,-15.22 -40.85,-16.46 3.23,2.46 5.62,3.5 9.96,6.95l6.18 5.61c1.13,1.14 1.98,1.75 3.13,3 2.38,2.6 3.46,3 5.5,6.1zm4.46 5.28c3.9,5.75 4.58,6.18 8.79,13.07 10.75,17.6 13.22,27.91 19.43,46.45 3.85,-1.23 14.1,-7.57 17.83,-10l10.01 -7.42c1.82,-1.4 4.45,-4.08 5.93,-4.83 -0.87,-2.09 -4.31,-6.65 -5.74,-8.48 -1.01,-1.29 -2.09,-2.67 -3.12,-3.84 -5.76,-6.56 -6.32,-7.62 -13.56,-14.35 -1.5,-1.39 -1.77,-2.08 -3.57,-3.4 -1.16,-0.85 -0.81,-0.7 -1.8,-1.7l-5.81 -4.65c-2.74,-2.01 -5.2,-3.98 -8.01,-5.94 -1.91,-1.33 -2.26,-1.45 -4.6,-0.49 -1.6,0.66 -3.42,1.3 -5.13,1.87 -1.8,0.61 -3.53,1.21 -5.25,1.71 -1.7,0.5 -4.47,1.15 -5.41,1.99zm-62.64 2.76c6.51,0.58 20.17,-0.83 26.96,-1.74 4.31,-0.58 8.54,-1.24 12.61,-1.97 3.7,-0.67 9.03,-2.19 12.38,-2.45 -4.57,-6.27 -15.25,-14.58 -21.56,-18.39 -8.87,-5.35 -18.67,-8.52 -30.42,-9.52l0.02 34.07zm-57.89 -6.17c7.54,1.07 14.72,3.01 24.8,4.36 8.39,1.12 18.58,2.04 27.01,1.81l0.16 -34.01c-11,0.12 -21.91,4.44 -30.15,9.29 -6.46,3.8 -6.44,4.39 -11.75,8.3 -1.89,1.38 -8.83,8.04 -10.07,10.25zm-22.3 -7.07c1.87,1.24 13.37,4.88 16.02,5.18 1.28,-2.1 3.2,-3.73 5.28,-5.93 3.5,-3.73 8.33,-8.06 12.56,-11.01l6.93 -4.7c-10.45,1.37 -33.19,11.38 -40.78,16.46zm-50.26 47.56l7.44 6.41c5.73,4.41 19.56,13.78 26.06,15.98l5.42 -16.51c2.01,-5.33 4.12,-10.63 6.52,-15.72 3.37,-7.16 9.31,-17.69 14.17,-24.22 0.76,-1.01 1.85,-2.26 2.29,-3.43 -9.72,-1.72 -16.16,-7.59 -20.44,-4.7 -2.82,1.9 -5.38,3.95 -8.05,5.92l-5.78 4.68c-1,1.01 -0.64,0.83 -1.8,1.69 -0.83,0.61 -1.21,0.79 -1.93,1.56 -4.58,5.01 -9.19,8.9 -13.65,14.24 -2.22,2.65 -9.64,12.09 -10.25,14.11z"/>
  <path class="fil4" d="M106.69 194.05l-0.01 -24.68c2.34,-0.17 3.48,1.08 6.67,-6.06 -6.38,-0.17 -6.06,-0.61 -9.79,2.56l-11.9 9.91c-3.96,3.44 -2.8,1.96 -2.89,11.58l-0.04 32c2.52,-0.62 18.88,-8.83 22.72,-10.67 6.94,-3.32 16,-7.98 21.3,-12.22l0.02 -31.72 21.49 -0.07c1.12,-1.98 2.75,-3.44 3.64,-5.76l-26.79 -0.05c-2.67,0.26 -5.09,4.17 -8.74,7.48l-8.04 7.66c-3.53,3.66 -0.53,7.38 -1.63,15.08 -0.24,1.72 -4.43,4.46 -6.01,4.96z"/>
  <path class="fil4" d="M214.19 147.45c-1.07,-1.23 -11.69,-0.65 -13.27,-0.65 -4.51,-0 -9.12,0.1 -13.62,-0.04l-0.06 -5.22 52.66 -0 -0.02 -5.63 -52.55 0.03 -0.11 -5.42 75.13 -0.06 0.08 11.65 5.58 -0.23 0.17 -17.04 -82.97 0.02c-1.97,0.35 -3.43,2.42 -4.61,3.76 -13.97,15.67 -13.63,5.32 -13.31,28.86 7.37,-0.94 37.94,-10.61 46.9,-10.04z"/>
  <path class="fil4" d="M45.76 230.98l0.03 9.79c2.18,-0.62 16.11,-7.69 17.48,-8.72l0.36 -34.46 18.35 -0.09 0 -5.99c-23.17,-0.15 -15.1,-2.2 -29.02,8.81 -8.87,7.02 -7.22,5.53 -7.21,11.45 0.01,6.4 0.01,12.8 0,19.2z"/>
  <path class="fil5" d="M356.73 280.95c0.17,5.87 -350.24,1.81 -350.54,0 -0.01,-0.06 10.33,-1.17 27.47,-1.34 82.59,-0.84 322.99,-1.5 323.07,1.34z"/>
 </g>
</svg>
